# OBJ generated by ONSHAPE BY PTC INC, 1.215 Units = meters
mtllib Field Assembly - Walls.mtl
g Field Wall
v -1.78321 0.293116 1.78321 
v -1.78321 -0.0127 1.78321 
v -1.78321 -0.0127 -1.78321 
v -1.78321 0.293116 -1.78321 
v 1.78321 -0.0127 -1.78321 
v 1.78321 0.293116 -1.78321 
v 1.78321 -0.0127 1.78321 
v 1.78321 0.293116 1.78321 
v 1.83401 0.293116 1.83401 
v 1.83401 0.293116 -1.83401 
v -1.83401 0.293116 -1.83401 
v -1.83401 0.293116 1.83401 
v 1.83401 -0.0127 -1.83401 
v 1.83401 -0.0127 1.83401 
v -1.83401 -0.0127 1.83401 
v -1.83401 -0.0127 -1.83401 
vn 1 0 0 
vn 0 0 1 
vn -1 0 0 
vn 0 0 -1 
vn 0 1 0 
vn 0 -1 0 
vn -1 0 0 
vn 0 0 1 
vn 1 0 0 
vn 0 0 -1 
usemtl 0.917647_0.917647_0.917647_0.000000_0.000000
o mesh0
f 1//1 2//1 3//1 
f 3//1 4//1 1//1 
o mesh1
f 4//2 3//2 5//2 
f 5//2 6//2 4//2 
o mesh2
f 6//3 5//3 7//3 
f 7//3 8//3 6//3 
o mesh3
f 8//4 7//4 2//4 
f 2//4 1//4 8//4 
o mesh4
f 9//5 10//5 6//5 
f 10//5 11//5 4//5 
f 11//5 12//5 1//5 
f 12//5 9//5 8//5 
f 4//5 6//5 10//5 
f 8//5 1//5 12//5 
f 1//5 4//5 11//5 
f 6//5 8//5 9//5 
o mesh5
f 13//6 14//6 7//6 
f 14//6 15//6 2//6 
f 15//6 16//6 3//6 
f 16//6 13//6 5//6 
f 2//6 7//6 14//6 
f 5//6 3//6 16//6 
f 3//6 2//6 15//6 
f 7//6 5//6 13//6 
o mesh6
f 11//7 16//7 15//7 
f 15//7 12//7 11//7 
o mesh7
f 12//8 15//8 14//8 
f 14//8 9//8 12//8 
o mesh8
f 9//9 14//9 13//9 
f 13//9 10//9 9//9 
o mesh9
f 10//10 13//10 16//10 
f 16//10 11//10 10//10 
g Foam Floor
v 0.0170912 0 0.594402 
v 0.549501 0 0.594402 
v 0.283296 0 0.328197 
v 0.594402 0 1.1888 
v 1.11022e-16 0 0.611494 
v 0.594402 0 0.639304 
v 4.44089e-16 0 1.1888 
v -2.22045e-16 0 0.594402 
v -0.0170912 0 0.594402 
v 0.594402 0 0.612434 
v 0.576371 0 0.594402 
v 1.1439 0 1.1888 
v 0.594402 0 1.78321 
v -2.22045e-16 0 1.78321 
v -0.594402 0 1.1888 
v -0.594402 0 1.78321 
v -0.594402 -0.0127 1.78321 
v -2.22045e-16 -0.0127 1.78321 
v 0.594402 -0.0127 1.78321 
v 1.1888 0 1.78321 
v 1.1888 0 1.23371 
v 1.17077 0 1.1888 
v 0.594402 0 0.594402 
v 0.296731 0 0.314762 
v 0.594402 0 0.576371 
v 0.314762 0 0.296731 
v 0.612434 0 0.594402 
v 4.44089e-16 -0.0127 1.1888 
v -0.594402 -0.0127 1.1888 
v -1.1888 0 1.78321 
v -1.1888 -0.0127 1.78321 
v 0.594402 -0.0127 1.1888 
v 1.1888 -0.0127 1.78321 
v -0.594402 -0.0127 0.594402 
v -2.22045e-16 -0.0127 0.594402 
v -1.1888 -0.0127 1.1888 
v 0.594402 -0.0127 0.594402 
v 1.1888 -0.0127 1.1888 
v 1.1888 -0.0127 0.594402 
v 1.78321 -0.0127 1.78321 
v 1.78321 -0.0127 1.1888 
v 0.594402 -0.0127 1.11022e-15 
v -2.22045e-16 -0.0127 1.11022e-15 
v 1.51425 0 1.78321 
v 1.49525 0 1.78321 
v 1.78321 0 1.78321 
v 1.49525 0 1.54015 
v 1.49525 0 1.51328 
v 1.1888 0 1.20684 
v 1.1888 0 1.1888 
v 1.78321 0 1.1888 
v 1.51425 0 1.1888 
v 1.78321 -0.0127 0.594402 
v 1.1888 -0.0127 1.11022e-15 
v 1.78321 0 1.18609 
v 1.51425 0 1.18609 
v 1.78321 0 1.16709 
v 1.49525 0 1.16709 
v 1.49525 0 1.1888 
v 1.78321 0 0.594402 
v 1.78321 -0.0127 1.11022e-15 
v 0.594402 -0.0127 -0.594402 
v 1.1888 -0.0127 -0.594402 
v 1.49525 0 1.47722 
v 1.49525 0 1.45035 
v 1.23371 0 1.1888 
v 1.20684 0 1.1888 
v 1.1888 0 1.17077 
v 0.639304 0 0.594402 
v 0.594402 0 0.549501 
v 1.1888 0 1.1439 
v 1.1888 0 0.594402 
v 1.78321 0 1.11022e-15 
v 1.78321 -0.0127 -0.594402 
v 1.1888 0 1.11022e-15 
v 1.78321 0 -0.594402 
v 1.1888 -0.0127 -1.1888 
v 1.78321 -0.0127 -1.1888 
v -1.1888 -0.0127 0.594402 
v -1.78321 -0.0127 1.78321 
v -1.78321 -0.0127 1.1888 
v -0.594402 -0.0127 1.11022e-15 
v -2.22045e-16 -0.0127 -0.594402 
v 0.594402 -0.0127 -1.1888 
v -1.1888 -0.0127 1.11022e-15 
v -0.594402 -0.0127 -0.594402 
v -2.22045e-16 -0.0127 -1.1888 
v 0.594402 -0.0127 -1.78321 
v 1.1888 -0.0127 -1.78321 
v -1.78321 -0.0127 0.594402 
v -1.78321 0 1.78321 
v -1.78321 0 1.1888 
v -1.49525 0 1.78321 
v -1.51425 0 1.78321 
v -1.1888 0 1.20224 
v -1.49525 0 1.50869 
v -1.51425 0 1.1888 
v -1.51425 0 1.18609 
v -1.78321 0 1.18609 
v -1.49525 0 1.48182 
v -1.49525 0 1.1888 
v -1.49525 0 1.16709 
v -1.78321 0 1.16709 
v -1.20224 0 1.1888 
v -1.78321 0 0.594402 
v -1.78321 -0.0127 1.11022e-15 
v -1.1888 -0.0127 -0.594402 
v -0.594402 -0.0127 -1.1888 
v -2.22045e-16 -0.0127 -1.78321 
v -1.17537 0 1.1888 
v -1.1888 0 1.1888 
v -0.594402 0 0.607837 
v -1.1888 0 1.17537 
v -0.580967 0 0.594402 
v -0.594402 0 0.594402 
v -0.299029 0 0.312464 
v -0.607837 0 0.594402 
v -1.1888 0 0.594402 
v -1.78321 0 1.11022e-15 
v -1.78321 -0.0127 -0.594402 
v -1.1888 -0.0127 -1.1888 
v -0.594402 -0.0127 -1.78321 
v 0.594402 0 -1.78321 
v -2.22045e-16 0 -1.78321 
v -0.594402 0 0.580967 
v -1.1888 0 1.11022e-15 
v -1.78321 0 -0.594402 
v -1.78321 -0.0127 -1.1888 
v -1.1888 -0.0127 -1.78321 
v -0.594402 0 -1.78321 
v 1.78321 -0.0127 -1.78321 
v 1.78321 0 -1.78321 
v 1.78321 0 -1.1888 
v 1.1888 0 -1.78321 
v 0.594402 0 -1.1888 
v -2.22045e-16 0 -1.1888 
v 1.49525 0 -1.78321 
v 1.51425 0 -1.78321 
v 1.1888 0 -1.20224 
v 1.49525 0 -1.50869 
v 1.51425 0 -1.1888 
v 1.78321 0 -1.18609 
v 1.51425 0 -1.18609 
v 1.49525 0 -1.48182 
v 1.49525 0 -1.1888 
v 1.78321 0 -1.16709 
v 1.49525 0 -1.16709 
v 1.20224 0 -1.1888 
v 1.1888 0 -0.594402 
v 1.1888 0 -1.17537 
v 1.1888 0 -1.1888 
v 1.17537 0 -1.1888 
v 0.594402 0 -0.607837 
v 0.607837 0 -0.594402 
v 0.594402 0 -0.594402 
v 0.580967 0 -0.594402 
v 0.594402 0 -0.580967 
v 0.611494 0 -1.11022e-16 
v 0.594402 0 0.0170912 
v 0.328197 0 0.283296 
v 0.584623 0 5.55112e-17 
v 0 0 0.584623 
v 0.594402 0 1.11022e-15 
v 0.594402 0 -0.0170912 
v 0.312464 0 -0.299029 
v -0.594402 0 -1.1888 
v -1.1888 0 -1.78321 
v -1.78321 -0.0127 -1.78321 
v -1.78321 0 -1.78321 
v -1.78321 0 -1.1888 
v 0.0170912 0 -0.594402 
v 1.66533e-16 0 -0.611494 
v 0.299029 0 -0.312464 
v -2.22045e-16 0 -0.594402 
v -0.0170912 0 -0.594402 
v -1.66533e-16 0 -0.584623 
v -2.22045e-16 0 1.11022e-15 
v -0.584623 0 -1.11022e-16 
v -0.312464 0 0.299029 
v -0.594402 0 1.11022e-15 
v -0.594402 0 0.0170912 
v -0.611494 0 -1.11022e-16 
v -1.1888 0 -0.594402 
v -0.594402 0 -0.0170912 
v -1.78321 0 -1.16709 
v -1.78321 0 -1.18609 
v -1.51425 0 -1.18609 
v -1.51425 0 -1.1888 
v -1.51425 0 -1.78321 
v -1.49525 0 -1.16709 
v -1.49525 0 -1.1888 
v -1.49525 0 -1.78321 
v -1.49525 0 -1.54015 
v -1.1888 0 -1.23371 
v -1.1439 0 -1.1888 
v -1.49525 0 -1.51328 
v -1.1888 0 -1.20684 
v -0.594402 0 -0.639304 
v -1.17077 0 -1.1888 
v -1.1888 0 -1.1888 
v -0.594402 0 -0.612434 
v -0.549501 0 -0.594402 
v -0.283296 0 -0.328197 
v -0.576371 0 -0.594402 
v -0.594402 0 -0.594402 
v -0.314762 0 -0.296731 
v -0.296731 0 -0.314762 
v -0.594402 0 -0.576371 
v -0.612434 0 -0.594402 
v -0.594402 0 -0.549501 
v -0.328197 0 -0.283296 
v -0.639304 0 -0.594402 
v -1.1888 0 -1.1439 
v -1.1888 0 -1.17077 
v -1.49525 0 -1.47722 
v -1.20684 0 -1.1888 
v -1.49525 0 -1.45035 
v -1.23371 0 -1.1888 
vn 0 1 0 
vn 0 0 1 
vn 0 -1 0 
vn 0 1 0 
vn 1 0 0 
vn 0 -1 0 
vn 0 1 0 
vn 1 0 0 
vn 0 -1 0 
vn 0 1 0 
vn 1 0 0 
vn 0 -1 0 
vn 0 1 0 
vn 1 0 0 
vn 0 -1 0 
vn -1 0 0 
vn 0 0 1 
vn 0 1 0 
vn -1 0 0 
vn 0 -1 0 
vn 0 1 0 
vn -1 0 0 
vn 0 -1 0 
vn 0 0 -1 
vn 0 1 0 
vn -1 0 0 
vn 0 -1 0 
vn 0 0 -1 
vn 1 0 0 
vn 0 1 0 
vn 0 0 -1 
vn 1 0 0 
vn 0 1 0 
vn 0 0 -1 
vn 0 -1 0 
vn -1 0 0 
vn 0 1 0 
vn 0 0 -1 
usemtl 0.600000_0.600000_0.600000_0.000000_0.000000
o mesh10
f 17//11 18//11 19//11 
o mesh11
f 20//11 17//11 21//11 
f 20//11 22//11 18//11 
f 18//11 17//11 20//11 
f 21//11 23//11 20//11 
usemtl 0.901961_0.901961_0.901961_0.000000_0.000000
o mesh12
f 24//11 21//11 17//11 
o mesh13
f 24//11 25//11 21//11 
o mesh14
f 22//11 26//11 27//11 
f 27//11 18//11 22//11 
usemtl 0.600000_0.600000_0.600000_0.000000_0.000000
o mesh15
f 22//11 20//11 28//11 
o mesh16
f 29//11 20//11 23//11 
f 23//11 30//11 29//11 
o mesh17
f 23//11 31//11 32//11 
f 32//11 30//11 23//11 
o mesh18
f 30//12 32//12 33//12 
f 33//12 34//12 30//12 
o mesh19
f 29//12 30//12 34//12 
f 34//12 35//12 29//12 
o mesh20
f 29//11 36//11 37//11 
f 37//11 28//11 29//11 
f 28//11 20//11 29//11 
usemtl 0.901961_0.901961_0.901961_0.000000_0.000000
o mesh21
f 38//11 26//11 22//11 
f 22//11 28//11 38//11 
usemtl 0.600000_0.600000_0.600000_0.000000_0.000000
o mesh22
f 39//11 27//11 26//11 
o mesh23
f 40//11 27//11 41//11 
f 41//11 42//11 40//11 
f 27//11 39//11 41//11 
o mesh24
f 41//11 39//11 43//11 
o mesh25
f 44//13 34//13 33//13 
f 33//13 45//13 44//13 
o mesh26
f 46//12 47//12 33//12 
f 33//12 32//12 46//12 
o mesh27
f 35//13 34//13 44//13 
f 44//13 48//13 35//13 
o mesh28
f 36//12 29//12 35//12 
f 35//12 49//12 36//12 
o mesh29
f 44//13 45//13 50//13 
f 50//13 51//13 44//13 
o mesh30
f 47//13 52//13 45//13 
f 45//13 33//13 47//13 
o mesh31
f 53//13 48//13 44//13 
f 44//13 51//13 53//13 
o mesh32
f 49//13 35//13 48//13 
f 48//13 54//13 49//13 
o mesh33
f 53//13 55//13 54//13 
f 54//13 48//13 53//13 
o mesh34
f 56//13 49//13 54//13 
f 54//13 57//13 56//13 
o mesh35
f 58//13 53//13 51//13 
f 51//13 59//13 58//13 
o mesh36
f 56//12 60//12 61//12 
f 61//12 49//12 56//12 
f 56//12 62//12 60//12 
f 61//12 36//12 49//12 
o mesh37
f 36//14 61//14 63//14 
f 63//14 37//14 36//14 
usemtl 0.901961_0.901961_0.901961_0.000000_0.000000
o mesh38
f 64//14 65//14 37//14 
f 37//14 63//14 64//14 
o mesh39
f 37//14 65//14 38//14 
f 38//14 28//14 37//14 
usemtl 0.600000_0.600000_0.600000_0.000000_0.000000
o mesh40
f 66//14 38//14 65//14 
o mesh41
f 62//14 67//14 68//14 
f 68//14 60//14 62//14 
o mesh42
f 62//15 56//15 57//15 
f 57//15 67//15 62//15 
o mesh43
f 57//16 54//16 55//16 
f 55//16 69//16 57//16 
o mesh44
f 53//16 58//16 70//16 
f 70//16 55//16 53//16 
o mesh45
f 71//17 72//17 68//17 
f 68//17 67//17 71//17 
usemtl 1.000000_0.235294_0.294118_0.000000_0.000000
o mesh46
f 73//17 74//17 72//17 
f 75//17 68//17 72//17 
f 72//17 74//17 75//17 
f 72//17 71//17 73//17 
usemtl 0.600000_0.600000_0.600000_0.000000_0.000000
o mesh47
f 57//18 73//18 71//18 
f 69//18 76//18 73//18 
f 73//18 57//18 69//18 
f 71//18 67//18 57//18 
o mesh48
f 77//19 69//19 55//19 
f 55//19 70//19 77//19 
o mesh49
f 70//19 58//19 78//19 
f 78//19 79//19 70//19 
usemtl 1.000000_0.235294_0.294118_0.000000_0.000000
o mesh50
f 60//20 64//20 63//20 
f 60//20 68//20 80//20 
f 80//20 64//20 60//20 
f 68//20 81//20 80//20 
f 68//20 75//20 81//20 
f 63//20 61//20 60//20 
usemtl 0.600000_0.600000_0.600000_0.000000_0.000000
o mesh51
f 82//20 81//20 75//20 
o mesh52
f 65//20 64//20 80//20 
f 80//20 83//20 65//20 
f 83//20 66//20 65//20 
o mesh53
f 26//20 38//20 84//20 
f 38//20 66//20 84//20 
f 43//20 39//20 26//20 
f 84//20 43//20 26//20 
usemtl 0.901961_0.901961_0.901961_0.000000_0.000000
o mesh54
f 85//20 86//20 41//20 
f 41//20 43//20 85//20 
o mesh55
f 80//20 81//20 82//20 
f 82//20 83//20 80//20 
o mesh56
f 82//20 87//20 84//20 
f 84//20 83//20 82//20 
usemtl 0.600000_0.600000_0.600000_0.000000_0.000000
o mesh57
f 66//20 83//20 84//20 
usemtl 0.901961_0.901961_0.901961_0.000000_0.000000
o mesh58
f 84//20 87//20 85//20 
f 85//20 43//20 84//20 
usemtl 0.600000_0.600000_0.600000_0.000000_0.000000
o mesh59
f 88//20 85//20 87//20 
o mesh60
f 74//20 88//20 87//20 
f 76//20 88//20 74//20 
f 82//20 75//20 74//20 
f 87//20 82//20 74//20 
f 74//20 73//20 76//20 
o mesh61
f 89//21 76//21 69//21 
f 69//21 77//21 89//21 
o mesh62
f 77//22 70//22 79//22 
f 79//22 90//22 77//22 
o mesh63
f 89//23 91//23 88//23 
f 88//23 76//23 89//23 
o mesh64
f 89//24 77//24 90//24 
f 90//24 92//24 89//24 
o mesh65
f 90//25 79//25 93//25 
f 93//25 94//25 90//25 
o mesh66
f 52//25 95//25 50//25 
f 50//25 45//25 52//25 
o mesh67
f 96//25 97//25 52//25 
f 52//25 47//25 96//25 
o mesh68
f 98//25 59//25 51//25 
f 51//25 50//25 98//25 
o mesh69
f 58//25 59//25 99//25 
f 99//25 78//25 58//25 
o mesh70
f 79//25 78//25 100//25 
f 100//25 93//25 79//25 
o mesh71
f 98//25 50//25 95//25 
f 95//25 101//25 98//25 
o mesh72
f 59//25 98//25 102//25 
f 102//25 99//25 59//25 
o mesh73
f 78//25 99//25 103//25 
f 103//25 100//25 78//25 
o mesh74
f 100//25 104//25 105//25 
f 105//25 93//25 100//25 
o mesh75
f 97//25 106//25 95//25 
f 95//25 52//25 97//25 
o mesh76
f 107//26 108//26 97//26 
f 97//26 96//26 107//26 
o mesh77
f 96//27 109//27 110//27 
f 47//27 46//27 109//27 
f 109//27 96//27 47//27 
f 110//27 107//27 96//27 
o mesh78
f 46//28 111//28 112//28 
f 112//28 109//28 46//28 
o mesh79
f 110//28 113//28 108//28 
f 108//28 107//28 110//28 
o mesh80
f 114//28 115//28 108//28 
f 108//28 113//28 114//28 
usemtl 0.000000_0.529412_0.882353_0.000000_0.000000
o mesh81
f 110//28 112//28 116//28 
f 116//28 113//28 110//28 
f 110//28 109//28 112//28 
f 116//28 117//28 113//28 
o mesh82
f 117//28 118//28 114//28 
f 119//28 115//28 114//28 
f 114//28 118//28 119//28 
f 114//28 113//28 117//28 
usemtl 0.600000_0.600000_0.600000_0.000000_0.000000
o mesh83
f 117//28 116//28 120//28 
o mesh84
f 106//29 97//29 119//29 
f 97//29 115//29 119//29 
f 97//29 108//29 115//29 
f 119//29 121//29 106//29 
o mesh85
f 95//30 106//30 122//30 
f 122//30 101//30 95//30 
o mesh86
f 98//30 101//30 123//30 
f 123//30 102//30 98//30 
o mesh87
f 99//30 102//30 124//30 
f 124//30 103//30 99//30 
o mesh88
f 100//30 103//30 125//30 
f 125//30 104//30 100//30 
o mesh89
f 32//31 126//31 111//31 
f 32//31 31//31 126//31 
f 111//31 46//31 32//31 
usemtl 0.901961_0.901961_0.901961_0.000000_0.000000
o mesh90
f 111//31 120//31 116//31 
f 111//31 127//31 120//31 
f 116//31 112//31 111//31 
usemtl 0.600000_0.600000_0.600000_0.000000_0.000000
o mesh91
f 126//31 31//31 128//31 
usemtl 0.901961_0.901961_0.901961_0.000000_0.000000
o mesh92
f 127//31 111//31 126//31 
o mesh93
f 129//31 120//31 127//31 
usemtl 0.600000_0.600000_0.600000_0.000000_0.000000
o mesh94
f 31//31 25//31 130//31 
f 31//31 23//31 21//31 
f 21//31 25//31 31//31 
f 130//31 128//31 31//31 
usemtl 0.901961_0.901961_0.901961_0.000000_0.000000
o mesh95
f 131//31 128//31 130//31 
usemtl 0.600000_0.600000_0.600000_0.000000_0.000000
o mesh96
f 130//31 25//31 132//31 
usemtl 0.901961_0.901961_0.901961_0.000000_0.000000
o mesh97
f 128//31 133//31 129//31 
f 129//31 126//31 128//31 
f 129//31 127//31 126//31 
f 128//31 131//31 133//31 
usemtl 0.600000_0.600000_0.600000_0.000000_0.000000
o mesh98
f 118//31 120//31 129//31 
f 129//31 134//31 118//31 
f 121//31 119//31 118//31 
f 118//31 134//31 121//31 
f 118//31 117//31 120//31 
o mesh99
f 121//32 135//32 122//32 
f 122//32 106//32 121//32 
o mesh100
f 101//33 122//33 136//33 
f 136//33 123//33 101//33 
o mesh101
f 102//33 123//33 137//33 
f 137//33 124//33 102//33 
o mesh102
f 124//33 138//33 125//33 
f 125//33 103//33 124//33 
o mesh103
f 139//34 104//34 125//34 
f 125//34 140//34 139//34 
o mesh104
f 134//35 129//35 133//35 
usemtl 0.901961_0.901961_0.901961_0.000000_0.000000
o mesh105
f 133//35 131//35 141//35 
usemtl 0.600000_0.600000_0.600000_0.000000_0.000000
o mesh106
f 134//35 142//35 135//35 
f 135//35 121//35 134//35 
o mesh107
f 135//36 143//36 136//36 
f 136//36 122//36 135//36 
o mesh108
f 123//37 136//37 144//37 
f 144//37 137//37 123//37 
o mesh109
f 124//37 137//37 145//37 
f 145//37 138//37 124//37 
o mesh110
f 146//38 140//38 125//38 
f 125//38 138//38 146//38 
o mesh111
f 94//37 93//37 105//37 
f 105//37 147//37 94//37 
o mesh112
f 148//39 149//39 94//39 
f 94//39 147//39 148//39 
o mesh113
f 139//38 150//38 105//38 
f 105//38 104//38 139//38 
o mesh114
f 151//40 139//40 140//40 
f 140//40 152//40 151//40 
o mesh115
f 147//41 153//41 154//41 
f 105//41 150//41 153//41 
f 153//41 147//41 105//41 
f 154//41 148//41 147//41 
o mesh116
f 150//40 155//40 156//40 
f 156//40 153//40 150//40 
o mesh117
f 148//40 154//40 157//40 
f 157//40 149//40 148//40 
o mesh118
f 158//40 149//40 157//40 
f 157//40 159//40 158//40 
usemtl 1.000000_0.235294_0.294118_0.000000_0.000000
o mesh119
f 154//40 156//40 160//40 
f 160//40 157//40 154//40 
f 154//40 153//40 156//40 
f 160//40 161//40 157//40 
usemtl 0.600000_0.600000_0.600000_0.000000_0.000000
o mesh120
f 90//42 94//42 162//42 
f 94//42 158//42 162//42 
f 94//42 149//42 158//42 
f 162//42 92//42 90//42 
usemtl 1.000000_0.235294_0.294118_0.000000_0.000000
o mesh121
f 161//43 163//43 159//43 
f 162//43 158//43 159//43 
f 159//43 163//43 162//43 
f 159//43 157//43 161//43 
usemtl 0.600000_0.600000_0.600000_0.000000_0.000000
o mesh122
f 164//43 161//43 160//43 
o mesh123
f 89//43 92//43 165//43 
f 165//43 91//43 89//43 
o mesh124
f 163//43 164//43 166//43 
f 166//43 165//43 163//43 
f 92//43 162//43 163//43 
f 163//43 165//43 92//43 
f 163//43 161//43 164//43 
usemtl 0.901961_0.901961_0.901961_0.000000_0.000000
o mesh125
f 155//43 164//43 160//43 
f 155//43 167//43 164//43 
f 160//43 156//43 155//43 
usemtl 0.600000_0.600000_0.600000_0.000000_0.000000
o mesh126
f 139//43 168//43 155//43 
f 139//43 151//43 168//43 
f 155//43 150//43 139//43 
usemtl 0.901961_0.901961_0.901961_0.000000_0.000000
o mesh127
f 155//43 168//43 167//43 
o mesh128
f 167//43 166//43 164//43 
usemtl 0.600000_0.600000_0.600000_0.000000_0.000000
o mesh129
f 151//43 169//43 168//43 
o mesh130
f 166//43 170//43 165//43 
usemtl 0.901961_0.901961_0.901961_0.000000_0.000000
o mesh131
f 166//43 168//43 169//43 
f 169//43 170//43 166//43 
f 166//43 167//43 168//43 
f 169//43 171//43 170//43 
o mesh132
f 172//43 171//43 169//43 
o mesh133
f 171//43 173//43 170//43 
usemtl 0.600000_0.600000_0.600000_0.000000_0.000000
o mesh134
f 91//43 86//43 85//43 
f 91//43 174//43 175//43 
f 175//43 86//43 91//43 
f 85//43 88//43 91//43 
o mesh135
f 175//43 176//43 86//43 
usemtl 0.901961_0.901961_0.901961_0.000000_0.000000
o mesh136
f 177//43 42//43 176//43 
f 177//43 19//43 40//43 
f 40//43 19//43 18//43 
f 178//43 24//43 17//43 
f 176//43 179//43 177//43 
f 42//43 41//43 86//43 
f 18//43 27//43 40//43 
f 17//43 19//43 178//43 
f 86//43 176//43 42//43 
f 19//43 177//43 178//43 
f 40//43 42//43 177//43 
f 176//43 175//43 179//43 
o mesh137
f 179//43 175//43 174//43 
o mesh138
f 180//43 179//43 174//43 
usemtl 0.600000_0.600000_0.600000_0.000000_0.000000
o mesh139
f 173//43 180//43 174//43 
f 91//43 165//43 170//43 
f 170//43 173//43 91//43 
f 174//43 91//43 173//43 
o mesh140
f 173//43 181//43 180//43 
o mesh141
f 182//43 152//43 140//43 
f 140//43 146//43 182//43 
o mesh142
f 146//44 138//44 145//44 
f 145//44 183//44 146//44 
o mesh143
f 145//45 137//45 144//45 
f 144//45 184//45 145//45 
o mesh144
f 185//46 184//46 144//46 
f 144//46 186//46 185//46 
o mesh145
f 151//47 187//47 172//47 
f 151//47 152//47 188//47 
f 188//47 187//47 151//47 
f 172//47 169//47 151//47 
o mesh146
f 187//47 189//47 172//47 
usemtl 0.901961_0.901961_0.901961_0.000000_0.000000
o mesh147
f 188//47 190//47 187//47 
o mesh148
f 188//47 191//47 190//47 
o mesh149
f 192//47 181//47 189//47 
f 181//47 173//47 172//47 
f 189//47 190//47 192//47 
f 173//47 171//47 172//47 
f 177//47 179//47 180//47 
f 172//47 189//47 181//47 
f 180//47 181//47 177//47 
f 181//47 192//47 177//47 
f 189//47 187//47 190//47 
usemtl 0.600000_0.600000_0.600000_0.000000_0.000000
o mesh150
f 193//47 178//47 177//47 
o mesh151
f 192//47 193//47 177//47 
o mesh152
f 192//47 194//47 193//47 
o mesh153
f 193//47 194//47 178//47 
usemtl 0.901961_0.901961_0.901961_0.000000_0.000000
o mesh154
f 178//47 195//47 132//47 
f 132//47 195//47 141//47 
f 132//47 24//47 178//47 
f 141//47 131//47 130//47 
f 194//47 196//47 197//47 
f 141//47 130//47 132//47 
f 197//47 195//47 194//47 
f 195//47 178//47 194//47 
f 132//47 25//47 24//47 
usemtl 0.600000_0.600000_0.600000_0.000000_0.000000
o mesh155
f 197//47 141//47 195//47 
o mesh156
f 134//47 197//47 198//47 
f 134//47 133//47 141//47 
f 141//47 197//47 134//47 
f 198//47 142//47 134//47 
o mesh157
f 142//47 199//47 143//47 
f 143//47 135//47 142//47 
usemtl 0.901961_0.901961_0.901961_0.000000_0.000000
o mesh158
f 196//47 198//47 197//47 
o mesh159
f 198//47 196//47 200//47 
usemtl 0.600000_0.600000_0.600000_0.000000_0.000000
o mesh160
f 144//46 201//46 202//46 
f 136//46 143//46 201//46 
f 201//46 144//46 136//46 
f 202//46 186//46 144//46 
o mesh161
f 203//47 204//47 186//47 
f 186//47 202//47 203//47 
o mesh162
f 205//47 185//47 186//47 
f 186//47 204//47 205//47 
usemtl 0.000000_0.529412_0.882353_0.000000_0.000000
o mesh163
f 201//47 206//47 203//47 
f 207//47 204//47 203//47 
f 203//47 206//47 207//47 
f 203//47 202//47 201//47 
usemtl 0.600000_0.600000_0.600000_0.000000_0.000000
o mesh164
f 184//48 205//48 208//48 
f 208//48 145//48 184//48 
f 184//48 185//48 205//48 
f 208//48 183//48 145//48 
o mesh165
f 183//47 208//47 209//47 
f 209//47 210//47 183//47 
o mesh166
f 146//47 210//47 211//47 
f 146//47 183//47 210//47 
f 211//47 182//47 146//47 
usemtl 0.901961_0.901961_0.901961_0.000000_0.000000
o mesh167
f 212//47 213//47 210//47 
f 210//47 209//47 212//47 
usemtl 0.600000_0.600000_0.600000_0.000000_0.000000
o mesh168
f 211//47 214//47 182//47 
usemtl 0.901961_0.901961_0.901961_0.000000_0.000000
o mesh169
f 211//47 210//47 213//47 
f 213//47 215//47 211//47 
usemtl 0.600000_0.600000_0.600000_0.000000_0.000000
o mesh170
f 213//47 216//47 215//47 
usemtl 0.901961_0.901961_0.901961_0.000000_0.000000
o mesh171
f 215//47 217//47 214//47 
f 214//47 211//47 215//47 
usemtl 0.600000_0.600000_0.600000_0.000000_0.000000
o mesh172
f 182//47 191//47 188//47 
f 182//47 214//47 218//47 
f 218//47 191//47 182//47 
f 188//47 152//47 182//47 
o mesh173
f 218//47 219//47 191//47 
usemtl 0.901961_0.901961_0.901961_0.000000_0.000000
o mesh174
f 214//47 217//47 220//47 
f 220//47 218//47 214//47 
usemtl 0.600000_0.600000_0.600000_0.000000_0.000000
o mesh175
f 221//47 220//47 217//47 
o mesh176
f 222//47 223//47 220//47 
f 220//47 221//47 224//47 
f 220//47 224//47 222//47 
o mesh177
f 225//47 224//47 221//47 
usemtl 0.901961_0.901961_0.901961_0.000000_0.000000
o mesh178
f 192//47 219//47 223//47 
f 223//47 222//47 192//47 
f 192//47 190//47 191//47 
f 222//47 224//47 226//47 
f 191//47 219//47 192//47 
f 194//47 227//47 200//47 
f 223//47 219//47 218//47 
f 222//47 227//47 192//47 
f 194//47 192//47 227//47 
f 226//47 227//47 222//47 
f 218//47 220//47 223//47 
f 200//47 196//47 194//47 
usemtl 0.600000_0.600000_0.600000_0.000000_0.000000
o mesh179
f 226//47 200//47 227//47 
o mesh180
f 199//47 200//47 226//47 
f 199//47 142//47 198//47 
f 198//47 200//47 199//47 
f 226//47 228//47 199//47 
usemtl 0.901961_0.901961_0.901961_0.000000_0.000000
o mesh181
f 228//47 226//47 224//47 
f 224//47 225//47 228//47 
usemtl 0.600000_0.600000_0.600000_0.000000_0.000000
o mesh182
f 229//47 199//47 228//47 
o mesh183
f 230//47 225//47 217//47 
f 217//47 215//47 230//47 
f 215//47 216//47 230//47 
f 225//47 221//47 217//47 
o mesh184
f 213//47 212//47 231//47 
f 231//47 232//47 213//47 
f 232//47 216//47 213//47 
usemtl 0.000000_0.529412_0.882353_0.000000_0.000000
o mesh185
f 205//47 212//47 209//47 
f 205//47 204//47 231//47 
f 231//47 212//47 205//47 
f 204//47 233//47 231//47 
f 204//47 207//47 233//47 
f 209//47 208//47 205//47 
usemtl 0.600000_0.600000_0.600000_0.000000_0.000000
o mesh186
f 207//47 234//47 233//47 
o mesh187
f 206//47 199//47 229//47 
f 143//47 199//47 206//47 
f 234//47 207//47 206//47 
f 229//47 234//47 206//47 
f 206//47 201//47 143//47 
usemtl 0.901961_0.901961_0.901961_0.000000_0.000000
o mesh188
f 231//47 233//47 234//47 
f 234//47 232//47 231//47 
o mesh189
f 225//47 230//47 229//47 
f 229//47 228//47 225//47 
o mesh190
f 234//47 229//47 230//47 
f 230//47 232//47 234//47 
usemtl 0.600000_0.600000_0.600000_0.000000_0.000000
o mesh191
f 232//47 230//47 216//47 
